<svg width="24" height="26" viewBox="0 0 24 26" fill="none" xmlns="http://www.w3.org/2000/svg">
<g filter="url(#filter0_d_4_10879)">
<path fill-rule="evenodd" clip-rule="evenodd" d="M8.4298 14.7329L7.40582 13.1684C6.70664 12.1001 5.21734 11.7103 4.07816 12.296L4.3436 12.1595C4.06089 12.3048 3.92533 12.6672 4.04173 12.9683L5.45914 16.6356C5.68384 17.2169 6.25773 18.0391 6.73327 18.4521C6.73327 18.4521 9.58473 20.8123 9.58473 21.6972V22.8174H14.2045H15.4677H16.5143H17.6692V21.6972C17.6692 20.8123 19.4119 18.0252 19.4119 18.0252C19.7326 17.4835 20 16.5291 20 15.8954V11.2355C19.9791 10.2038 19.1021 9.36772 18.02 9.36772C17.4787 9.36772 17.0402 9.78578 17.0402 10.3019V10.6751C17.0402 9.64344 16.1632 8.80731 15.0811 8.80731C14.5397 8.80731 14.1012 9.22537 14.1012 9.74151V10.1147C14.1012 9.08303 13.2243 8.24691 12.1421 8.24691C11.6008 8.24691 11.1623 8.66497 11.1623 9.1811V9.55433C11.1623 9.38853 11.1446 9.25672 11.1103 9.15227L10.8115 4.33993C10.7711 3.68918 10.2226 3.18359 9.58473 3.18359C8.94243 3.18359 8.4298 3.70057 8.4298 4.3383V8.95825V14.7329Z" fill="white"/>
<path d="M7.8298 12.7263C6.99206 11.5669 5.39896 11.1175 4.07606 11.6391L4.06927 11.6259L3.80384 11.7623C3.80384 11.7623 3.80383 11.7623 3.80383 11.7623L3.82111 11.796C3.43909 12.1354 3.29392 12.6978 3.48207 13.1846L4.89949 16.8519C5.15908 17.5235 5.78961 18.4273 6.33983 18.9051L6.34521 18.9098L6.35065 18.9143L6.35067 18.9143L6.3507 18.9144L6.35089 18.9145L6.35209 18.9155L6.35751 18.92L6.37991 18.9387C6.3998 18.9554 6.42938 18.9803 6.46724 19.0125C6.54301 19.0769 6.6518 19.1703 6.78258 19.2853C7.04476 19.5159 7.39242 19.8307 7.73842 20.1707C8.08707 20.5134 8.42147 20.8695 8.66454 21.1839C8.78638 21.3414 8.87488 21.4752 8.93042 21.5815C8.97414 21.6652 8.98318 21.705 8.98473 21.7094V22.8174V23.4174H9.58473H14.2045H15.4677H16.5143H17.6692H18.2692V22.8174V21.6972C18.2692 21.6124 18.3281 21.3758 18.494 20.9841C18.6469 20.6232 18.8548 20.2105 19.0686 19.8143C19.2813 19.42 19.4948 19.0515 19.6555 18.7809C19.7357 18.6458 19.8024 18.5357 19.8489 18.4597C19.8721 18.4217 19.8903 18.3922 19.9025 18.3724L19.9163 18.3502L19.9197 18.3448L19.9205 18.3436L19.9206 18.3433L19.9206 18.3433L19.9206 18.3433L19.9244 18.3372L19.9281 18.3309C20.1239 18.0004 20.2885 17.5728 20.4044 17.1552C20.5201 16.7379 20.6 16.2842 20.6 15.8954V11.2355H20.6001L20.5999 11.2234C20.572 9.84583 19.4091 8.76772 18.02 8.76772C17.6592 8.76772 17.3185 8.88796 17.0466 9.09378C16.5726 8.54823 15.8606 8.20731 15.0811 8.20731C14.7202 8.20731 14.3796 8.32756 14.1077 8.53337C13.6337 7.98783 12.9217 7.64691 12.1421 7.64691C11.9622 7.64691 11.7872 7.67682 11.6233 7.73235L11.4103 4.30274C11.3501 3.33354 10.5374 2.58359 9.58473 2.58359C8.60966 2.58359 7.8298 3.3706 7.8298 4.3383V8.95825V12.7263Z" stroke="black" stroke-width="1.2"/>
</g>
<defs>
<filter id="filter0_d_4_10879" x="-0.199707" y="-0.0166016" width="24.3999" height="28.0342" filterUnits="userSpaceOnUse" color-interpolation-filters="sRGB">
<feFlood flood-opacity="0" result="BackgroundImageFix"/>
<feColorMatrix in="SourceAlpha" type="matrix" values="0 0 0 0 0 0 0 0 0 0 0 0 0 0 0 0 0 0 127 0" result="hardAlpha"/>
<feOffset dy="1"/>
<feGaussianBlur stdDeviation="1.5"/>
<feColorMatrix type="matrix" values="0 0 0 0 0 0 0 0 0 0 0 0 0 0 0 0 0 0 0.2 0"/>
<feBlend mode="normal" in2="BackgroundImageFix" result="effect1_dropShadow_4_10879"/>
<feBlend mode="normal" in="SourceGraphic" in2="effect1_dropShadow_4_10879" result="shape"/>
</filter>
</defs>
</svg>
