<svg width="16" height="13" viewBox="0 0 16 13" fill="none" xmlns="http://www.w3.org/2000/svg">
<path d="M11.569 7.45363C11.7659 7.14804 12.2128 7.14804 12.4097 7.45363L15.0034 11.4792C15.2177 11.8119 14.9789 12.25 14.5831 12.25H9.39567C8.99986 12.25 8.76098 11.8119 8.97536 11.4792L11.569 7.45363Z" fill="#F8F8F8"/>
<path d="M7.75791 0.40549C7.94688 0.0971099 8.39063 0.085171 8.5959 0.382944L10.8473 3.64892C10.9596 3.81172 10.9653 4.02535 10.862 4.19395L6.07184 12.0112C5.98094 12.1596 5.81948 12.25 5.64551 12.25H1.39279C1.00205 12.25 0.762311 11.8219 0.966461 11.4888L7.75791 0.40549Z" fill="#F8F8F8"/>
</svg>
