<svg width="18" height="19" viewBox="0 0 18 19" fill="none" xmlns="http://www.w3.org/2000/svg">
<path d="M8.991 0C7.1883 0 5.50993 0.529729 4.10182 1.44144H8.991C13.164 1.44144 16.5586 4.83603 16.5586 9.00899C16.5586 13.182 13.164 16.5765 8.991 16.5765C6.66758 16.5765 4.58651 15.5234 3.19642 13.8693C5.53786 13.8693 9.41713 13.8693 10.0757 13.8693V12.4279H0.654083C0.86129 12.9333 1.11264 13.4153 1.40453 13.8693C3.00633 16.3648 5.80542 18.018 8.991 18.018C13.9667 18.018 18 13.9847 18 9.00899C18 4.03332 13.9667 0 8.991 0Z" fill="#F7F8F9"/>
<path d="M8.63425 8.29336C8.63425 8.29336 0.00995059 8.29606 0.00995059 8.29696C0.0018425 8.40237 -0.00806739 9.49606 0.0108515 9.7348C0.857696 9.7348 7.61444 9.7348 8.63425 9.7348V8.29336Z" fill="#F7F8F9"/>
<path d="M10.0757 4.14844H1.40453C1.11174 4.60519 0.860389 5.08808 0.654083 5.58988C1.58741 5.58988 8.95496 5.58988 10.0757 5.58988V4.14844Z" fill="#F7F8F9"/>
</svg>
