<svg width="42" height="42" viewBox="0 0 42 42" fill="none" xmlns="http://www.w3.org/2000/svg">
<circle cx="21" cy="21" r="14.8492" transform="rotate(45 21 21)" fill="#E8EC54"/>
<path d="M17.5 25.6672L24.0158 19.1514L24.0158 24.8447C24.0158 25.2997 24.3891 25.673 24.8441 25.673C25.2991 25.673 25.6666 25.3055 25.6666 24.8505L25.6666 17.1622C25.6666 16.7072 25.2991 16.3397 24.8441 16.3397L17.1558 16.328C16.7008 16.328 16.3333 16.6955 16.3333 17.1505C16.3333 17.6055 16.7008 17.973 17.1558 17.973L22.8491 17.9847L16.3333 24.5005C16.0125 24.8214 16.0125 25.3464 16.3333 25.6672C16.6541 25.988 17.1791 25.988 17.5 25.6672Z" fill="black"/>
</svg>
