<svg width="42" height="43" viewBox="0 0 42 43" fill="none" xmlns="http://www.w3.org/2000/svg">
<circle cx="21" cy="21.6406" r="14.8492" transform="rotate(45 21 21.6406)" fill="black"/>
<path d="M17.5 26.3078L24.0158 19.792L24.0158 25.4853C24.0158 25.9403 24.3891 26.3136 24.8441 26.3136C25.2991 26.3136 25.6666 25.9461 25.6666 25.4911L25.6666 17.8028C25.6666 17.3478 25.2991 16.9803 24.8441 16.9803L17.1558 16.9686C16.7008 16.9686 16.3333 17.3361 16.3333 17.7911C16.3333 18.2461 16.7008 18.6136 17.1558 18.6136L22.8491 18.6253L16.3333 25.1411C16.0125 25.462 16.0125 25.987 16.3333 26.3078C16.6541 26.6286 17.1791 26.6286 17.5 26.3078Z" fill="#E8EC54"/>
</svg>
