<svg width="863" height="2134" viewBox="0 0 863 2134" fill="none" xmlns="http://www.w3.org/2000/svg">
<g opacity="0.25" filter="url(#filter0_df_120_10383)">
<path d="M830.096 -203.594C959.452 -299.118 1051.09 -315.294 1177.05 -294.869L1272.37 -267.635L1272.37 736.62L1272.37 1029.39C1272.37 1214.15 1284.32 1386.37 1231.52 1356.19C1178.71 1326.02 993.553 1301.89 929.432 1498.03C865.311 1694.16 830.096 1969.51 672.947 2022.31C515.799 2075.12 552.249 1924.24 529.618 1818.63C506.987 1713.02 623.914 1694.16 646.545 1524.43C669.176 1354.7 558.415 1418.33 506.181 1377.29C453.947 1336.25 418.502 1242.04 418.502 1217.79C418.502 1198.39 471.358 1174.26 497.786 1164.62C533.098 1139.74 573.374 1048.67 451.978 883.496C439.54 806.38 474.366 828.769 464.416 761.603C454.466 694.437 389.787 719.313 292.77 694.437C195.753 669.561 178.339 664.586 123.612 562.593C68.8841 460.601 118.637 390.947 200.728 251.641C282.82 112.334 494.267 154.623 583.822 79.9949C673.376 5.3664 668.401 -84.1879 830.096 -203.594Z" fill="url(#paint0_radial_120_10383)" shape-rendering="crispEdges"/>
<path d="M830.096 -203.594C959.452 -299.118 1051.09 -315.294 1177.05 -294.869L1272.37 -267.635L1272.37 736.62L1272.37 1029.39C1272.37 1214.15 1284.32 1386.37 1231.52 1356.19C1178.71 1326.02 993.553 1301.89 929.432 1498.03C865.311 1694.16 830.096 1969.51 672.947 2022.31C515.799 2075.12 552.249 1924.24 529.618 1818.63C506.987 1713.02 623.914 1694.16 646.545 1524.43C669.176 1354.7 558.415 1418.33 506.181 1377.29C453.947 1336.25 418.502 1242.04 418.502 1217.79C418.502 1198.39 471.358 1174.26 497.786 1164.62C533.098 1139.74 573.374 1048.67 451.978 883.496C439.54 806.38 474.366 828.769 464.416 761.603C454.466 694.437 389.787 719.313 292.77 694.437C195.753 669.561 178.339 664.586 123.612 562.593C68.8841 460.601 118.637 390.947 200.728 251.641C282.82 112.334 494.267 154.623 583.822 79.9949C673.376 5.3664 668.401 -84.1879 830.096 -203.594Z" stroke="#F8F8F8" shape-rendering="crispEdges"/>
</g>
<defs>
<filter id="filter0_df_120_10383" x="0.0991211" y="-403.162" width="1373.93" height="2536.86" filterUnits="userSpaceOnUse" color-interpolation-filters="sRGB">
<feFlood flood-opacity="0" result="BackgroundImageFix"/>
<feColorMatrix in="SourceAlpha" type="matrix" values="0 0 0 0 0 0 0 0 0 0 0 0 0 0 0 0 0 0 127 0" result="hardAlpha"/>
<feOffset dy="4"/>
<feGaussianBlur stdDeviation="2"/>
<feComposite in2="hardAlpha" operator="out"/>
<feColorMatrix type="matrix" values="0 0 0 0 0 0 0 0 0 0 0 0 0 0 0 0 0 0 0.25 0"/>
<feBlend mode="normal" in2="BackgroundImageFix" result="effect1_dropShadow_120_10383"/>
<feBlend mode="normal" in="SourceGraphic" in2="effect1_dropShadow_120_10383" result="shape"/>
<feGaussianBlur stdDeviation="50" result="effect2_foregroundBlur_120_10383"/>
</filter>
<radialGradient id="paint0_radial_120_10383" cx="0" cy="0" r="1" gradientUnits="userSpaceOnUse" gradientTransform="translate(-729.565 49.1506) rotate(24.0019) scale(2548.21 1279.56)">
<stop offset="0.16622" stop-color="#F8F8F8"/>
<stop offset="0.879533" stop-color="#F8F8F8" stop-opacity="0"/>
</radialGradient>
</defs>
</svg>
