<svg width="794" height="2006" viewBox="0 0 794 2006" fill="none" xmlns="http://www.w3.org/2000/svg">
<g opacity="0.15" filter="url(#filter0_df_120_10382)">
<path d="M374.419 1627.87C310.156 1775.27 238.883 1835.1 119.588 1880.39L23.4226 1904.46L-478.705 1034.75L-625.088 781.212C-717.471 621.2 -813.933 478.033 -753.114 477.762C-692.296 477.492 -519.882 405.808 -562.419 203.889C-604.956 1.97081 -712.131 -254.091 -602.439 -378.396C-492.748 -502.702 -448.878 -353.817 -376.473 -273.67C-304.068 -193.524 -395.9 -118.728 -330.633 39.5803C-265.366 197.888 -201.26 87.4018 -135.503 96.8274C-69.7465 106.253 8.05372 170.118 20.1796 191.12C29.8803 207.922 -3.83079 255.245 -21.899 276.807C-40.0384 316.012 -29.387 415.012 158.334 497.362C207.664 557.928 166.309 555.952 208.509 609.144C250.709 662.336 294.284 608.453 390.742 581.488C487.199 554.523 504.767 550.125 603.159 611.089C701.551 672.054 693.29 757.251 691.85 918.94C690.41 1080.63 486.146 1149.73 445.904 1259.14C405.662 1368.54 454.748 1443.61 374.419 1627.87Z" fill="url(#paint0_radial_120_10382)" shape-rendering="crispEdges"/>
<path d="M374.419 1627.87C310.156 1775.27 238.883 1835.1 119.588 1880.39L23.4226 1904.46L-478.705 1034.75L-625.088 781.212C-717.471 621.2 -813.933 478.033 -753.114 477.762C-692.296 477.492 -519.882 405.808 -562.419 203.889C-604.956 1.97081 -712.131 -254.091 -602.439 -378.396C-492.748 -502.702 -448.878 -353.817 -376.473 -273.67C-304.068 -193.524 -395.9 -118.728 -330.633 39.5803C-265.366 197.888 -201.26 87.4018 -135.503 96.8274C-69.7465 106.253 8.05372 170.118 20.1796 191.12C29.8803 207.922 -3.83079 255.245 -21.899 276.807C-40.0384 316.012 -29.387 415.012 158.334 497.362C207.664 557.928 166.309 555.952 208.509 609.144C250.709 662.336 294.284 608.453 390.742 581.488C487.199 554.523 504.767 550.125 603.159 611.089C701.551 672.054 693.29 757.251 691.85 918.94C690.41 1080.63 486.146 1149.73 445.904 1259.14C405.662 1368.54 454.748 1443.61 374.419 1627.87Z" stroke="#F8F8F8" shape-rendering="crispEdges"/>
</g>
<defs>
<filter id="filter0_df_120_10382" x="-872.637" y="-526.579" width="1665.77" height="2531.62" filterUnits="userSpaceOnUse" color-interpolation-filters="sRGB">
<feFlood flood-opacity="0" result="BackgroundImageFix"/>
<feColorMatrix in="SourceAlpha" type="matrix" values="0 0 0 0 0 0 0 0 0 0 0 0 0 0 0 0 0 0 127 0" result="hardAlpha"/>
<feOffset dy="4"/>
<feGaussianBlur stdDeviation="2"/>
<feComposite in2="hardAlpha" operator="out"/>
<feColorMatrix type="matrix" values="0 0 0 0 0 0 0 0 0 0 0 0 0 0 0 0 0 0 0.25 0"/>
<feBlend mode="normal" in2="BackgroundImageFix" result="effect1_dropShadow_120_10382"/>
<feBlend mode="normal" in="SourceGraphic" in2="effect1_dropShadow_120_10382" result="shape"/>
<feGaussianBlur stdDeviation="50" result="effect2_foregroundBlur_120_10382"/>
</filter>
<radialGradient id="paint0_radial_120_10382" cx="0" cy="0" r="1" gradientUnits="userSpaceOnUse" gradientTransform="translate(1598.75 629.155) rotate(174.002) scale(2548.21 1279.56)">
<stop offset="0.16622" stop-color="#F8F8F8"/>
<stop offset="0.879533" stop-color="#F8F8F8" stop-opacity="0"/>
</radialGradient>
</defs>
</svg>
