<svg width="98" height="91" viewBox="0 0 98 91" fill="none" xmlns="http://www.w3.org/2000/svg">
<path d="M1.95046 0.640633C0.872515 0.640633 -3.88458e-06 1.77179 -3.82377e-06 3.16286C-3.76297e-06 4.55394 0.874724 5.68507 1.95046 5.68507L94.0969 5.68506L94.0969 10.0725L-3.52174e-06 10.0725L-2.88634e-06 24.6088L94.0969 24.6088L94.0969 28.9392L-2.69706e-06 28.9392L-2.06165e-06 43.4755L94.0969 43.4755L94.0969 47.8058L-1.87237e-06 47.8058L-1.23697e-06 62.3421L94.0969 62.3421L94.0969 66.6724L-1.04768e-06 66.6724L-4.12281e-07 81.2087L94.0969 81.2087L94.0969 85.5962L1.95046 85.5962C0.872519 85.5962 -1.71181e-07 86.7245 -1.10251e-07 88.1184C-4.93199e-08 89.5123 0.874728 90.6406 1.95046 90.6406L98 90.6406L98 78.6836L98 76.1043L3.90312 76.1043L3.90312 71.774L98 71.774L98 69.1946L98 59.8199L98 57.2434L3.90312 57.2434L3.90312 52.9131L98 52.913L98 50.3337L98 40.9589L98 38.3796L3.90312 38.3796L3.90312 34.0493L98 34.0493L98 31.4699L98 22.0952L98 19.5158L3.90312 19.5159L3.90312 15.1855L98 15.1855L98 12.6062L98 0.652057L1.95046 0.652061L1.95046 0.640633Z" fill="#E8EC54"/>
</svg>
