<svg width="33" height="91" viewBox="0 0 33 91" fill="none" xmlns="http://www.w3.org/2000/svg">
<path d="M0.656784 0.640633C0.293803 0.640633 -3.88458e-06 1.77179 -3.82377e-06 3.16286C-3.76297e-06 4.55394 0.294547 5.68507 0.656784 5.68507L31.6857 5.68506L31.6857 10.0725L-3.52174e-06 10.0725L-2.88634e-06 24.6088L31.6857 24.6088L31.6857 28.9392L-2.69706e-06 28.9392L-2.06165e-06 43.4755L31.6857 43.4755L31.6857 47.8058L-1.87237e-06 47.8058L-1.23697e-06 62.3421L31.6857 62.3421L31.6857 66.6724L-1.04768e-06 66.6724L-4.12281e-07 81.2087L31.6857 81.2087L31.6857 85.5962L0.656788 85.5962C0.293807 85.5962 -1.71181e-07 86.7245 -1.10251e-07 88.1184C-4.93199e-08 89.5123 0.294551 90.6406 0.656788 90.6406L33 90.6406L33 78.6836L33 76.1043L1.31432 76.1043L1.31432 71.774L33 71.774L33 69.1946L33 59.8199L33 57.2434L1.31431 57.2434L1.31431 52.9131L33 52.9131L33 50.3337L33 40.959L33 38.3796L1.31431 38.3796L1.31431 34.0493L33 34.0493L33 31.4699L33 22.0952L33 19.5159L1.31431 19.5159L1.31431 15.1855L33 15.1855L33 12.6062L33 0.65206L0.656784 0.652061L0.656784 0.640633Z" fill="#1A1A1A"/>
</svg>
