<svg width="12" height="11" viewBox="0 0 12 11" fill="none" xmlns="http://www.w3.org/2000/svg">
<path d="M6 1.49416L10.3925 9.08333H1.6075L6 1.49416ZM0.598333 8.5C0.149166 9.27583 0.709166 10.25 1.6075 10.25H10.3925C11.2908 10.25 11.8508 9.27583 11.4017 8.5L7.00917 0.910832C6.56 0.134998 5.44 0.134998 4.99083 0.910832L0.598333 8.5ZM5.41667 4.41667V5.58333C5.41667 5.90417 5.67917 6.16667 6 6.16667C6.32083 6.16667 6.58333 5.90417 6.58333 5.58333V4.41667C6.58333 4.09583 6.32083 3.83333 6 3.83333C5.67917 3.83333 5.41667 4.09583 5.41667 4.41667ZM5.41667 7.33333H6.58333V8.5H5.41667V7.33333Z" fill="#DD1C77"/>
</svg>
