<svg width="12" height="12" viewBox="0 0 12 12" fill="none" xmlns="http://www.w3.org/2000/svg">
<path d="M5.41666 3.08334H6.58333V4.25H5.41666V3.08334ZM6 8.91667C6.32083 8.91667 6.58333 8.65417 6.58333 8.33334V6C6.58333 5.67917 6.32083 5.41667 6 5.41667C5.67916 5.41667 5.41666 5.67917 5.41666 6V8.33334C5.41666 8.65417 5.67916 8.91667 6 8.91667ZM6 0.166672C2.78 0.166672 0.166664 2.78 0.166664 6C0.166664 9.22001 2.78 11.8333 6 11.8333C9.22 11.8333 11.8333 9.22001 11.8333 6C11.8333 2.78 9.22 0.166672 6 0.166672ZM6 10.6667C3.4275 10.6667 1.33333 8.5725 1.33333 6C1.33333 3.42751 3.4275 1.33334 6 1.33334C8.5725 1.33334 10.6667 3.42751 10.6667 6C10.6667 8.5725 8.5725 10.6667 6 10.6667Z" fill="#3E7DBC"/>
</svg>
