<svg width="12" height="12" viewBox="0 0 12 12" fill="none" xmlns="http://www.w3.org/2000/svg">
<path d="M6 0.166656C2.78 0.166656 0.166664 2.77999 0.166664 5.99999C0.166664 9.21999 2.78 11.8333 6 11.8333C9.22 11.8333 11.8333 9.21999 11.8333 5.99999C11.8333 2.77999 9.22 0.166656 6 0.166656ZM6 10.6667C3.4275 10.6667 1.33333 8.57249 1.33333 5.99999C1.33333 3.42749 3.4275 1.33332 6 1.33332C8.5725 1.33332 10.6667 3.42749 10.6667 5.99999C10.6667 8.57249 8.5725 10.6667 6 10.6667ZM8.26333 3.83582L4.83333 7.26582L3.73666 6.16916C3.50916 5.94166 3.14166 5.94166 2.91416 6.16916C2.68666 6.39666 2.68666 6.76416 2.91416 6.99166L4.425 8.50249C4.6525 8.72999 5.02 8.72999 5.2475 8.50249L9.09166 4.65832C9.31916 4.43082 9.31916 4.06332 9.09166 3.83582C8.86416 3.60832 8.49083 3.60832 8.26333 3.83582Z" fill="#47BA76"/>
</svg>
