<svg width="48" height="48" viewBox="0 0 48 48" fill="none" xmlns="http://www.w3.org/2000/svg">
<g clip-path="url(#clip0_46_9298)">
<path d="M26.1667 27.2392L26.1667 33.75C26.1667 34.3459 26.6542 34.8334 27.25 34.8334C27.8458 34.8334 28.3333 34.3459 28.3333 33.75L28.3333 27.2392L30.2725 27.2392C30.76 27.2392 30.9983 26.6542 30.6517 26.3184L27.6292 23.3067C27.4125 23.1009 27.0767 23.1009 26.86 23.3067L23.8375 26.3184C23.4908 26.6542 23.74 27.2392 24.2167 27.2392L26.1667 27.2392ZM23.7725 20.7609L21.8333 20.7609L21.8333 14.25C21.8333 13.6542 21.3458 13.1667 20.75 13.1667C20.1542 13.1667 19.6667 13.6542 19.6667 14.25L19.6667 20.7609L17.7275 20.7609C17.24 20.7609 17.0017 21.3459 17.3483 21.6817L20.3708 24.6934C20.5875 24.8992 20.9233 24.8992 21.14 24.6934L24.1625 21.6817C24.4983 21.3459 24.26 20.7609 23.7725 20.7609Z" fill="#E8EC54"/>
</g>
<defs>
<clipPath id="clip0_46_9298">
<rect width="26" height="26" fill="white" transform="translate(11 37) rotate(-90)"/>
</clipPath>
</defs>
</svg>
