<svg width="48" height="48" viewBox="0 0 48 48" fill="none" xmlns="http://www.w3.org/2000/svg">
<path d="M22.9689 22.8175C22.6393 22.2651 21.3629 21.0979 20.7766 20.7834C20.1915 20.478 19.5151 20.3259 18.7487 20.3259C17.9822 20.3259 17.3218 20.478 16.7366 20.7834C16.1515 21.0979 15.6987 21.5319 15.3793 22.0843C15.0497 22.6368 14.8843 23.276 14.8843 24C14.8843 24.724 15.0497 25.3632 15.3793 25.9157C15.6987 26.4681 16.1515 26.897 16.7366 27.2023C17.3218 27.5168 17.9924 27.6741 18.7487 27.6741C19.5151 27.6741 20.1915 27.5168 20.7766 27.2023C21.3618 26.897 21.8203 26.4681 22.1499 25.9157L24.2053 21.2694C24.6844 20.478 25.3607 19.8633 26.2333 19.4252C27.1059 18.9964 28.1073 18.7819 29.2354 18.7819C30.3634 18.7819 31.3809 18.9964 32.2534 19.4252C33.126 19.8633 33.8024 20.478 34.2814 21.2694C34.7605 22.0608 35 22.9707 35 24C35 25.0293 34.7605 25.9391 34.2814 26.7305C33.8024 27.5219 33.126 28.1315 32.2534 28.5604C31.3809 28.9985 30.3748 29.218 29.2354 29.218C28.1073 29.218 27.1059 28.9985 26.2333 28.5604C25.3607 28.1315 24.6844 27.5219 24.2053 26.7305L25.0733 25.206C25.3927 25.7584 26.6371 26.897 27.2234 27.2023C27.8085 27.5168 28.4792 27.6741 29.2354 27.6741C30.0019 27.6741 30.6782 27.5168 31.2634 27.2023C31.8485 26.897 32.307 26.4681 32.6367 25.9157C32.956 25.3632 33.1157 24.724 33.1157 24C33.1157 23.276 32.956 22.6368 32.6367 22.0843C32.307 21.5319 31.8485 21.0979 31.2634 20.7834C30.6782 20.478 30.0019 20.3259 29.2354 20.3259C28.4689 20.3259 27.8085 20.478 27.2234 20.7834C26.6382 21.0979 26.1854 21.5319 25.866 22.0843L23.7947 26.7305C23.3156 27.5219 22.6393 28.1315 21.7667 28.5604C20.8941 28.9985 19.8881 29.218 18.7487 29.218C17.6092 29.218 16.6191 28.9985 15.7466 28.5604C14.874 28.1315 14.1976 27.5219 13.7186 26.7305C13.2395 25.9391 13 25.0293 13 24C13 22.9707 13.2395 22.0608 13.7186 21.2694C14.1976 20.478 14.874 19.8633 15.7466 19.4252C16.6191 18.9964 17.6206 18.7819 18.7487 18.7819C19.8767 18.7819 20.8941 18.9964 21.7667 19.4252C22.6393 19.8633 23.3156 20.478 23.7947 21.2694L22.9678 22.8175H22.9689Z" fill="#F8F8F8"/>
</svg>
