<svg width="48" height="48" viewBox="0 0 48 48" fill="none" xmlns="http://www.w3.org/2000/svg">
<g clip-path="url(#clip0_46_9959)">
<path d="M24 22C20.53 22 17.64 24.54 17.09 27.86C16.99 28.46 17.48 29 18.09 29C18.58 29 18.99 28.64 19.07 28.15C19.48 25.79 21.53 24 24 24C26.47 24 28.52 25.79 28.93 28.15C29.01 28.64 29.42 29 29.91 29C30.52 29 31 28.46 30.9 27.86C30.36 24.54 27.47 22 24 22ZM24 18C18.3 18 13.61 22.34 13.05 27.9C13 28.49 13.46 29 14.06 29C14.57 29 15 28.62 15.05 28.12C15.49 23.57 19.34 20 24 20C28.66 20 32.51 23.57 32.96 28.12C33.01 28.62 33.44 29 33.95 29C34.54 29 35.01 28.49 34.95 27.9C34.39 22.34 29.7 18 24 18Z" fill="#E8EC54"/>
</g>
<defs>
<clipPath id="clip0_46_9959">
<rect width="24" height="24" fill="white" transform="translate(12 12)"/>
</clipPath>
</defs>
</svg>
