<svg width="48" height="48" viewBox="0 0 48 48" fill="none" xmlns="http://www.w3.org/2000/svg">
<g clip-path="url(#clip0_46_9286)">
<path d="M32 18.54V29.45C29.4 28.68 26.72 28.29 24 28.29C21.28 28.29 18.6 28.68 16 29.45V18.54C18.6 19.31 21.28 19.7 24 19.7C26.72 19.71 29.4 19.32 32 18.54ZM33.43 16C33.33 16 33.23 16.02 33.12 16.06C30.18 17.16 27.09 17.7 24 17.7C20.91 17.7 17.82 17.15 14.88 16.06C14.77 16.02 14.66 16 14.57 16C14.23 16 14 16.23 14 16.63V31.38C14 31.77 14.23 32 14.57 32C14.67 32 14.77 31.98 14.88 31.94C17.82 30.84 20.91 30.3 24 30.3C27.09 30.3 30.18 30.85 33.12 31.94C33.23 31.98 33.33 32 33.43 32C33.76 32 34 31.77 34 31.37V16.63C34 16.23 33.76 16 33.43 16Z" fill="#F8F8F8"/>
</g>
<defs>
<clipPath id="clip0_46_9286">
<rect width="24" height="24" fill="white" transform="translate(12 12)"/>
</clipPath>
</defs>
</svg>
