<svg width="48" height="48" viewBox="0 0 48 48" fill="none" xmlns="http://www.w3.org/2000/svg">
<g clip-path="url(#clip0_15_1660)">
<path d="M16 18.55C18.6 19.32 21.28 19.71 24 19.71C26.72 19.71 29.41 19.32 32 18.55V29.46C29.4 28.69 26.72 28.3 24 28.3C21.28 28.3 18.59 28.69 16 29.46V18.55ZM14 15.77V32.24C14 32.24 14.77 31.98 14.88 31.94C17.82 30.85 20.91 30.3 24 30.3C27.09 30.3 30.18 30.85 33.12 31.94C33.23 31.98 34 32.24 34 32.24V15.77C34 15.77 33.23 16.03 33.12 16.07C30.18 17.15 27.09 17.71 24 17.71C20.91 17.71 17.82 17.15 14.88 16.07C14.77 16.02 14 15.77 14 15.77Z" fill="#E8EC54"/>
</g>
<defs>
<clipPath id="clip0_15_1660">
<rect width="24" height="24" fill="white" transform="translate(12 12)"/>
</clipPath>
</defs>
</svg>
