<svg width="48" height="48" viewBox="0 0 48 48" fill="none" xmlns="http://www.w3.org/2000/svg">
<g clip-path="url(#clip0_46_9294)">
<path d="M28.85 18.85L30.29 20.29L25.41 25.17L22.12 21.88C21.73 21.49 21.1 21.49 20.71 21.88L14.71 27.89C14.32 28.28 14.32 28.91 14.71 29.3C15.1 29.69 15.73 29.69 16.12 29.3L21.41 24L24.7 27.29C25.09 27.68 25.72 27.68 26.11 27.29L31.7 21.71L33.14 23.15C33.45 23.46 33.99 23.24 33.99 22.8V18.5C34 18.22 33.78 18 33.5 18H29.21C28.76 18 28.54 18.54 28.85 18.85Z" fill="#F8F8F8"/>
</g>
<defs>
<clipPath id="clip0_46_9294">
<rect width="24" height="24" fill="white" transform="translate(12 12)"/>
</clipPath>
</defs>
</svg>
