<svg width="36" height="36" viewBox="0 0 36 36" fill="none" xmlns="http://www.w3.org/2000/svg">
<circle cx="18" cy="18" r="17.5" fill="#1A1A1A" stroke="#F8F8F8"/>
<path d="M17.991 9C16.1883 9 14.5099 9.52973 13.1018 10.4414H17.991C22.164 10.4414 25.5586 13.836 25.5586 18.009C25.5586 22.182 22.164 25.5765 17.991 25.5765C15.6676 25.5765 13.5865 24.5234 12.1964 22.8693C14.5379 22.8693 18.4171 22.8693 19.0757 22.8693V21.4279H9.65408C9.86129 21.9333 10.1126 22.4153 10.4045 22.8693C12.0063 25.3648 14.8054 27.018 17.991 27.018C22.9667 27.018 27 22.9847 27 18.009C27 13.0333 22.9667 9 17.991 9Z" fill="#F7F8F9"/>
<path d="M17.6343 17.2934C17.6343 17.2934 9.00995 17.2961 9.00995 17.297C9.00184 17.4024 8.99193 18.4961 9.01085 18.7348C9.8577 18.7348 16.6144 18.7348 17.6343 18.7348V17.2934Z" fill="#F7F8F9"/>
<path d="M19.0757 13.1484H10.4045C10.1117 13.6052 9.86039 14.0881 9.65408 14.5899C10.5874 14.5899 17.955 14.5899 19.0757 14.5899V13.1484Z" fill="#F7F8F9"/>
</svg>
