<svg width="24" height="24" viewBox="0 0 24 24" fill="none" xmlns="http://www.w3.org/2000/svg">
<circle cx="12" cy="12" r="11.5" fill="#1A1A1A" stroke="#F8F8F8"/>
<path d="M14.8828 13.0519C15.2766 12.4407 16.1702 12.4407 16.564 13.0519L18.0067 15.2911C18.4355 15.9565 17.9577 16.8327 17.1661 16.8327H14.2807C13.4891 16.8327 13.0113 15.9565 13.4401 15.2911L14.8828 13.0519Z" fill="#F8F8F8"/>
<path d="M11.3456 6.477C11.7235 5.86024 12.611 5.83636 13.0216 6.4319L14.4606 8.51942C14.6851 8.84501 14.6966 9.27228 14.49 9.60946L10.3564 16.3552C10.1746 16.6518 9.85172 16.8327 9.50379 16.8327H6.78558C6.00411 16.8327 5.52462 15.9765 5.93292 15.3102L11.3456 6.477Z" fill="#F8F8F8"/>
</svg>
