<svg width="38" height="38" viewBox="0 0 38 38" fill="none" xmlns="http://www.w3.org/2000/svg">
<path d="M19 37C28.9751 37 37 28.9751 37 19C37 9.02494 28.9751 1 19 1C9.02494 1 1 9.02494 1 19C1 28.9751 9.02494 37 19 37Z" fill="#1A1A1A" stroke="#F8F8F8"/>
<path d="M23.744 21.5273C23.744 19.0328 22.2473 18.1775 19.2538 17.8212C17.1156 17.5361 16.688 16.9659 16.688 15.968C16.688 14.9701 17.4008 14.3288 18.8262 14.3288C20.1091 14.3288 20.8219 14.7564 21.1782 15.8255C21.2495 16.0393 21.4633 16.1818 21.6772 16.1818H22.8174C23.1026 16.1818 23.3164 15.968 23.3164 15.683V15.6117C23.0312 14.0436 21.7483 12.832 20.1091 12.6895V10.979C20.1091 10.6938 19.8953 10.48 19.539 10.4087H18.4699C18.1847 10.4087 17.9709 10.6225 17.8996 10.979V12.6182C15.7614 12.9034 14.4073 14.3288 14.4073 16.1107C14.4073 18.4627 15.8327 19.3891 18.8262 19.7456C20.8219 20.1019 21.4633 20.5295 21.4633 21.67C21.4633 22.8104 20.4654 23.5943 19.1113 23.5943C17.2581 23.5943 16.6167 22.8102 16.4028 21.7411C16.3317 21.4561 16.1179 21.3135 15.904 21.3135H14.6923C14.4073 21.3135 14.1935 21.5273 14.1935 21.8124V21.8838C14.4785 23.6655 15.6189 24.9484 17.9709 25.3049V27.0154C17.9709 27.3004 18.1847 27.5142 18.541 27.5856H19.6101C19.8953 27.5856 20.1091 27.3717 20.1804 27.0154V25.3049C22.3186 24.9484 23.744 23.4517 23.744 21.5273Z" fill="#F8F8F8"/>
<path fill-rule="evenodd" clip-rule="evenodd" d="M9.04594 15.3032C6.9845 20.7765 9.82777 26.9605 15.372 28.9507C15.5853 29.0929 15.7985 29.3771 15.7985 29.5904V30.5856C15.7985 30.7277 15.7985 30.7989 15.7274 30.8698C15.6564 31.1542 15.372 31.2963 15.0877 31.1542C11.1072 29.8748 8.0507 26.8182 6.77126 22.8378C4.63885 16.0852 8.33508 8.90601 15.0877 6.7736C15.1588 6.70264 15.3009 6.70264 15.372 6.70264C15.6564 6.7736 15.7985 6.98684 15.7985 7.27122V8.26629C15.7985 8.6218 15.6564 8.83505 15.372 8.97715C12.4578 10.0434 10.1121 12.3179 9.04594 15.3032ZM22.2704 7.05814C22.3413 6.77376 22.6257 6.63166 22.9101 6.77376C26.8194 8.05321 29.947 11.1097 31.2265 15.1613C33.3589 21.9139 29.6627 29.0931 22.9101 31.2255C22.8389 31.2965 22.6968 31.2965 22.6257 31.2965C22.3413 31.2255 22.1992 31.0123 22.1992 30.7279V29.7328C22.1992 29.3773 22.3413 29.1641 22.6257 29.022C25.5399 27.9557 27.8856 25.6812 28.9518 22.6959C31.0132 17.2226 28.17 11.0386 22.6257 9.04845C22.4125 8.90617 22.1992 8.62196 22.1992 8.33759V7.34252C22.1992 7.20024 22.1992 7.12928 22.2704 7.05814Z" fill="#F8F8F8"/>
</svg>
