<svg width="25" height="24" viewBox="0 0 25 24" fill="none" xmlns="http://www.w3.org/2000/svg">
<g clip-path="url(#clip0_134_2251)">
<path d="M15.376 1H4.37598C3.27598 1 2.37598 1.9 2.37598 3V16C2.37598 16.55 2.82598 17 3.37598 17C3.92598 17 4.37598 16.55 4.37598 16V4C4.37598 3.45 4.82598 3 5.37598 3H15.376C15.926 3 16.376 2.55 16.376 2C16.376 1.45 15.926 1 15.376 1ZM19.376 5H8.37598C7.27598 5 6.37598 5.9 6.37598 7V21C6.37598 22.1 7.27598 23 8.37598 23H19.376C20.476 23 21.376 22.1 21.376 21V7C21.376 5.9 20.476 5 19.376 5ZM18.376 21H9.37598C8.82598 21 8.37598 20.55 8.37598 20V8C8.37598 7.45 8.82598 7 9.37598 7H18.376C18.926 7 19.376 7.45 19.376 8V20C19.376 20.55 18.926 21 18.376 21Z" fill="#E8EC54"/>
</g>
<defs>
<clipPath id="clip0_134_2251">
<rect width="24" height="24" fill="white" transform="translate(0.375977)"/>
</clipPath>
</defs>
</svg>
