<svg width="32" height="32" viewBox="0 0 32 32" fill="none" xmlns="http://www.w3.org/2000/svg">
<g id="Group 37199">
<path id="Vector" d="M18.4 15.8C18.4 15.2477 17.9523 14.8 17.4 14.8H5C4.44772 14.8 4 15.2477 4 15.8V16.2C4 16.7523 4.44772 17.2 5 17.2H17.4C17.9523 17.2 18.4 16.7523 18.4 16.2V15.8ZM18.4 11C18.4 10.4477 17.9523 10 17.4 10H5C4.44772 10 4 10.4477 4 11V11.4C4 11.9523 4.44772 12.4 5 12.4H17.4C17.9523 12.4 18.4 11.9523 18.4 11.4V11ZM23.2 19.6H20.8H17C16.4477 19.6 16 20.0477 16 20.6V21C16 21.5523 16.4477 22 17 22H20.8H23.2H27C27.5523 22 28 21.5523 28 21V20.6C28 20.0477 27.5523 19.6 27 19.6H23.2ZM4 21C4 21.5523 4.44772 22 5 22H12.6C13.1523 22 13.6 21.5523 13.6 21V20.6C13.6 20.0477 13.1523 19.6 12.6 19.6H5C4.44771 19.6 4 20.0477 4 20.6V21Z" fill="#E8EC54"/>
</g>
</svg>
