<svg width="48" height="49" viewBox="0 0 48 49" fill="none" xmlns="http://www.w3.org/2000/svg">
<path d="M23.976 0C19.1688 0 14.6932 1.41261 10.9382 3.84384H23.976C35.1039 3.84384 44.1562 12.8961 44.1562 24.024C44.1562 35.1519 35.1039 44.2041 23.976 44.2041C17.7802 44.2041 12.2307 41.3957 8.5238 36.9849C14.7676 36.9849 25.1123 36.9849 26.8685 36.9849V33.1411H1.74423C2.29678 34.4888 2.96705 35.7741 3.74543 36.9849C8.01689 43.6395 15.4811 48.0479 23.976 48.0479C37.2445 48.0479 48 37.2924 48 24.024C48 10.7555 37.2445 0 23.976 0Z" fill="#4C4C4C"/>
<path d="M23.0247 22.1145C23.0247 22.1145 0.0265349 22.1217 0.0265349 22.1241C0.00491333 22.4052 -0.021513 25.3217 0.0289373 25.9583C2.28719 25.9583 20.3052 25.9583 23.0247 25.9583V22.1145Z" fill="#4C4C4C"/>
<path d="M26.8685 11.0619H3.74543C2.96465 12.2799 2.29438 13.5676 1.74423 14.9057C4.23312 14.9057 23.8799 14.9057 26.8685 14.9057V11.0619Z" fill="#4C4C4C"/>
</svg>
