<svg width="24" height="25" viewBox="0 0 24 25" fill="none" xmlns="http://www.w3.org/2000/svg">
<path d="M18.2378 6.74999C17.0905 6.22358 15.8602 5.83574 14.5739 5.61361C14.5505 5.60932 14.5271 5.62004 14.515 5.64146C14.3568 5.92288 14.1815 6.29 14.0588 6.57856C12.6753 6.37143 11.2989 6.37143 9.94374 6.57856C9.82099 6.28359 9.63936 5.92288 9.48043 5.64146C9.46836 5.62075 9.44496 5.61004 9.42154 5.61361C8.13593 5.83503 6.90567 6.22287 5.7577 6.74999C5.74776 6.75427 5.73925 6.76142 5.73359 6.7707C3.40004 10.257 2.76079 13.6576 3.07439 17.016C3.0758 17.0324 3.08503 17.0481 3.0978 17.0581C4.63741 18.1888 6.12878 18.8752 7.59246 19.3301C7.61588 19.3373 7.6407 19.3287 7.65561 19.3094C8.00185 18.8366 8.31048 18.3381 8.57511 17.8138C8.59072 17.7831 8.57582 17.7466 8.5439 17.7345C8.05435 17.5488 7.5882 17.3224 7.1398 17.0653C7.10433 17.0445 7.10149 16.9938 7.13412 16.9695C7.22848 16.8988 7.32287 16.8252 7.41297 16.751C7.42927 16.7374 7.45198 16.7345 7.47115 16.7431C10.417 18.0881 13.6062 18.0881 16.5172 16.7431C16.5364 16.7338 16.5591 16.7367 16.5761 16.7503C16.6662 16.8245 16.7606 16.8988 16.8557 16.9695C16.8883 16.9938 16.8862 17.0445 16.8507 17.0653C16.4023 17.3274 15.9361 17.5488 15.4459 17.7338C15.414 17.7459 15.3998 17.7831 15.4154 17.8138C15.6857 18.3373 15.9943 18.8359 16.3342 19.3087C16.3484 19.3287 16.3739 19.3373 16.3973 19.3301C17.8681 18.8752 19.3595 18.1888 20.8991 17.0581C20.9126 17.0481 20.9211 17.0331 20.9225 17.0167C21.2978 13.134 20.2939 9.76129 18.2612 6.77141C18.2562 6.76142 18.2477 6.75427 18.2378 6.74999ZM9.01502 14.971C8.12812 14.971 7.39735 14.1568 7.39735 13.1568C7.39735 12.1569 8.11395 11.3426 9.01502 11.3426C9.92316 11.3426 10.6469 12.164 10.6327 13.1568C10.6327 14.1568 9.91606 14.971 9.01502 14.971ZM14.9961 14.971C14.1092 14.971 13.3784 14.1568 13.3784 13.1568C13.3784 12.1569 14.095 11.3426 14.9961 11.3426C15.9042 11.3426 16.6279 12.164 16.6137 13.1568C16.6137 14.1568 15.9042 14.971 14.9961 14.971Z" fill="#E8EC54"/>
</svg>
