<svg width="24" height="25" viewBox="0 0 24 25" fill="none" xmlns="http://www.w3.org/2000/svg">
<path d="M13.2812 12.4726C13.2812 15.6091 10.7558 18.1519 7.64049 18.1519C4.52519 18.1519 2 15.6099 2 12.4726C2 9.33523 4.52538 6.79338 7.64049 6.79338C10.7556 6.79338 13.2812 9.336 13.2812 12.4726ZM19.4691 12.4726C19.4691 15.4253 18.2063 17.8187 16.6487 17.8187C15.0912 17.8187 13.8284 15.4245 13.8284 12.4726C13.8284 9.52064 15.0912 7.12646 16.6487 7.12646C18.2063 7.12646 19.4691 9.52064 19.4691 12.4726ZM22 12.4726C22 15.118 21.5558 17.2624 21.008 17.2624C20.4603 17.2624 20.0161 15.1173 20.0161 12.4726C20.0161 9.82786 20.4603 7.68267 21.0082 7.68267C21.5562 7.68267 22 9.82728 22 12.4726Z" fill="#E8EC54"/>
</svg>
