<svg width="24" height="25" viewBox="0 0 24 25" fill="none" xmlns="http://www.w3.org/2000/svg">
<path d="M19.9525 8.39273C19.9647 8.56904 19.9647 8.74536 19.9647 8.9233C19.9647 14.3452 15.8371 20.5983 8.28966 20.5983V20.595C6.06013 20.5983 3.8769 19.9597 2 18.7555C2.32419 18.7945 2.65001 18.814 2.97664 18.8148C4.82429 18.8165 6.61913 18.1965 8.07272 17.0549C6.31688 17.0216 4.77717 15.8768 4.23928 14.2054C4.85436 14.3241 5.48812 14.2997 6.09181 14.1348C4.17753 13.748 2.80033 12.0661 2.80033 10.1128C2.80033 10.0949 2.80033 10.0779 2.80033 10.0608C3.37071 10.3785 4.00934 10.5548 4.6626 10.5743C2.85964 9.36937 2.30388 6.97083 3.39265 5.09555C5.47593 7.65903 8.54966 9.21743 11.8493 9.38237C11.5186 7.95722 11.9703 6.46382 13.0364 5.462C14.689 3.90847 17.2882 3.9881 18.8418 5.63994C19.7607 5.45875 20.6415 5.12155 21.4475 4.6438C21.1412 5.59362 20.5001 6.40045 19.6437 6.91314C20.457 6.81727 21.2517 6.59951 22 6.2672C21.4491 7.09271 20.7552 7.81178 19.9525 8.39273Z" fill="#E8EC54"/>
</svg>
