<svg width="32" height="33" viewBox="0 0 32 33" fill="none" xmlns="http://www.w3.org/2000/svg">
<path d="M15.7424 0.472656C12.5861 0.472656 9.6474 1.40016 7.18196 2.99646H15.7424C23.0488 2.99646 28.9924 8.94003 28.9924 16.2465C28.9924 23.5529 23.0488 29.4965 15.7424 29.4965C11.6743 29.4965 8.03059 27.6525 5.59669 24.7564C9.6963 24.7564 16.4885 24.7564 17.6416 24.7564V22.2326H1.14532C1.50812 23.1175 1.94821 23.9614 2.45928 24.7564C5.26386 29.1258 10.1648 32.0203 15.7424 32.0203C24.4543 32.0203 31.5162 24.9583 31.5162 16.2465C31.5162 7.53459 24.4543 0.472656 15.7424 0.472656Z" fill="#E8EC54"/>
<path d="M15.1177 14.9927C15.1177 14.9927 0.0174224 14.9975 0.0174224 14.999C0.00322602 15.1836 -0.0141252 17.0985 0.0189998 17.5165C1.50174 17.5165 13.3321 17.5165 15.1177 17.5165V14.9927Z" fill="#E8EC54"/>
<path d="M17.6416 7.73572H2.45928C1.94663 8.53545 1.50654 9.38093 1.14532 10.2595C2.77949 10.2595 15.6793 10.2595 17.6416 10.2595V7.73572Z" fill="#E8EC54"/>
</svg>
