<svg width="89" height="28" viewBox="0 0 89 28" fill="none" xmlns="http://www.w3.org/2000/svg">
<path d="M3.1538 11.2855H13.9465V8.83509H3.1538V3.02574H14.4421V0.547821H0.483154V19.8205H14.6073V17.3151H3.1538V11.2855Z" fill="#F7F8F9"/>
<path d="M26.1159 17.3566C25.4918 17.6228 24.831 17.7559 24.1335 17.7559C22.7753 17.7559 21.6648 17.3199 20.8021 16.4481C19.9394 15.5762 19.5081 14.4336 19.5081 13.0203C19.5081 12.0842 19.7054 11.2582 20.1 10.5424C20.4947 9.82651 21.0453 9.27127 21.752 8.87664C22.4587 8.48201 23.2525 8.28469 24.1335 8.28469C24.7943 8.28469 25.423 8.40859 26.0195 8.65638C26.6161 8.90417 27.1438 9.25751 27.6026 9.71638L29.1995 8.00937C27.7495 6.61439 26.0516 5.9169 24.106 5.9169C22.711 5.9169 21.4721 6.21517 20.3891 6.81171C19.3062 7.40824 18.4619 8.24339 17.8561 9.31716C17.2504 10.3909 16.9476 11.6253 16.9476 13.0203C16.9476 14.4153 17.2504 15.6772 17.8561 16.7509C18.4619 17.8247 19.3062 18.6553 20.3891 19.2426C21.4721 19.83 22.7202 20.1236 24.1335 20.1236C25.1614 20.1236 26.1021 19.9539 26.9556 19.6143C27.8091 19.2747 28.603 18.7378 29.3372 18.0036L27.7403 16.2416C27.2814 16.7188 26.7399 17.0905 26.1159 17.3566Z" fill="#F7F8F9"/>
<path d="M34.6234 0.547821H32.0629V19.8205H34.6234V0.547821Z" fill="#F7F8F9"/>
<path d="M39.8821 0.492859C39.3865 0.492859 38.9735 0.653465 38.6431 0.974677C38.3127 1.29589 38.1476 1.70429 38.1476 2.19987C38.1476 2.69546 38.3127 3.07632 38.6431 3.39753C38.9735 3.71875 39.3865 3.87935 39.8821 3.87935C40.3777 3.87935 40.8136 3.71875 41.1348 3.39753C41.456 3.07632 41.6166 2.6771 41.6166 2.19987C41.6166 1.72264 41.456 1.29589 41.1348 0.974677C40.8136 0.653465 40.396 0.492859 39.8821 0.492859Z" fill="#F7F8F9"/>
<path d="M41.1486 6.21951H38.5881V19.8205H41.1486V6.21951Z" fill="#F7F8F9"/>
<path d="M71.806 13.1579C70.9158 12.4972 69.452 12.0383 67.4146 11.7813C66.2582 11.6345 65.4368 11.4188 64.9504 11.1343C64.464 10.8498 64.2208 10.4506 64.2208 9.93664C64.2208 9.34928 64.5099 8.90417 65.0881 8.60132C65.6663 8.29846 66.506 8.14703 67.6073 8.14703C69.1124 8.14703 70.4615 8.56919 71.6546 9.41352L72.8385 7.54132C71.315 6.45837 69.5346 5.9169 67.4972 5.9169C65.7718 5.9169 64.3768 6.28859 63.3122 7.03197C62.2477 7.77534 61.7154 8.75274 61.7154 9.96417C61.7154 12.2402 63.5417 13.5985 67.1943 14.039C68.4241 14.1858 69.3006 14.4061 69.8237 14.6998C70.3468 14.9934 70.6083 15.4156 70.6083 15.9662C70.6083 16.5169 70.3238 16.9849 69.7548 17.3153C69.1858 17.6457 68.4149 17.8109 67.4421 17.8109C66.4693 17.8109 65.6066 17.6641 64.7439 17.3704C63.8812 17.0767 63.1562 16.6637 62.5689 16.1314L61.2748 18.0312C63.0553 19.4262 65.0927 20.1236 67.3871 20.1236C68.5251 20.1236 69.53 19.9493 70.4018 19.6005C71.2737 19.2518 71.9483 18.7654 72.4255 18.1413C72.9027 17.5172 73.1413 16.8014 73.1413 15.9938C73.1413 14.764 72.6962 13.8187 71.806 13.1579Z" fill="#F7F8F9"/>
<path d="M89 13.1028C89 10.8635 88.3851 9.11063 87.1553 7.84414C85.9255 6.57764 84.2185 5.9444 82.0343 5.9444C80.6577 5.9444 79.4462 6.24267 78.4 6.8392C77.3538 7.43574 76.537 8.27089 75.9496 9.34466C75.3623 10.4184 75.0686 11.6436 75.0686 13.0202C75.0686 14.3969 75.3668 15.7092 75.9634 16.7922C76.5599 17.8751 77.4042 18.7103 78.4964 19.2976C79.5885 19.885 80.8596 20.1787 82.3096 20.1787C83.4843 20.1787 84.5902 19.9676 85.6273 19.5454C86.6643 19.1233 87.5041 18.5359 88.1465 17.7834L86.4945 16.214C86.0907 16.6912 85.508 17.0767 84.7462 17.3704C83.9845 17.664 83.1907 17.8109 82.3647 17.8109C81.0615 17.8109 79.9923 17.4759 79.1571 16.806C78.322 16.136 77.8402 15.2137 77.7117 14.0389H88.9725C88.9908 13.8187 89 13.5066 89 13.1028ZM77.7392 11.8639C77.9411 10.7075 78.4229 9.81271 79.1847 9.17946C79.9464 8.54621 80.9238 8.22959 82.1169 8.22959C83.3834 8.22959 84.4113 8.55998 85.2005 9.22076C85.9898 9.88154 86.4395 10.7626 86.5496 11.8639H77.7392Z" fill="#F7F8F9"/>
<path d="M56.0987 6.81171C55.0709 6.21517 53.8961 5.9169 52.5746 5.9169C51.4733 5.9169 50.4729 6.12339 49.5735 6.53638C49.4695 6.5838 49.3686 6.61898 49.2692 6.64498V8.08738H47.4031V6.37577L47.3985 6.22129H45.1133V27.741H47.6738V18.1153C48.2061 18.7577 48.899 19.2533 49.7525 19.6021C50.606 19.9508 51.5467 20.1252 52.5746 20.1252C53.8961 20.1252 55.0709 19.8269 56.0987 19.2304C57.1266 18.6338 57.9296 17.7941 58.5078 16.7112C59.086 15.6282 59.3751 14.3984 59.3751 13.0218C59.3751 11.6452 59.086 10.4154 58.5078 9.33246C57.9296 8.24951 57.1266 7.40977 56.0987 6.81324V6.81171ZM55.5343 16.4343C54.6808 17.3153 53.5841 17.7559 52.2442 17.7559C51.3632 17.7559 50.5739 17.554 49.8764 17.1501C49.1789 16.7463 48.6374 16.1865 48.252 15.4707C47.8665 14.7548 47.6738 13.938 47.6738 13.0203C47.6738 12.1025 47.8665 11.2857 48.252 10.5699C48.6374 9.85404 49.1789 9.29422 49.8764 8.89041C50.5739 8.4866 51.3632 8.28469 52.2442 8.28469C53.5841 8.28469 54.6808 8.72521 55.5343 9.60625C56.3878 10.4873 56.8146 11.6253 56.8146 13.0203C56.8146 14.4153 56.3878 15.5533 55.5343 16.4343Z" fill="#F7F8F9"/>
</svg>
