<svg width="25" height="26" viewBox="0 0 25 26" fill="none" xmlns="http://www.w3.org/2000/svg">
<path d="M22.8638 1L13.8108 8.50018L15.4926 4.08007L22.8638 1Z" fill="#E17726" stroke="#E17726" stroke-width="1.40927" stroke-linecap="round" stroke-linejoin="round"/>
<path d="M2.00269 1L10.9662 8.57018L9.36495 4.08007L2.00269 1Z" fill="#E27625" stroke="#E27625" stroke-width="1.40927" stroke-linecap="round" stroke-linejoin="round"/>
<path d="M19.6073 18.3904L17.2009 22.5105L22.3536 24.1005L23.8207 18.4804L19.6073 18.3904Z" fill="#E27625" stroke="#E27625" stroke-width="1.40927" stroke-linecap="round" stroke-linejoin="round"/>
<path d="M1.04535 18.4804L2.50349 24.1005L7.65618 22.5105L5.25875 18.3904L1.04535 18.4804Z" fill="#E27625" stroke="#E27625" stroke-width="1.40927" stroke-linecap="round" stroke-linejoin="round"/>
<path d="M7.37866 11.4302L5.93842 13.8502L11.0464 14.1102L10.8675 7.9601L7.37866 11.4302Z" fill="#E27625" stroke="#E27625" stroke-width="1.40927" stroke-linecap="round" stroke-linejoin="round"/>
<path d="M17.4875 11.4307L13.936 7.89066L13.8108 14.1108L18.9188 13.8508L17.4875 11.4307Z" fill="#E27625" stroke="#E27625" stroke-width="1.40927" stroke-linecap="round" stroke-linejoin="round"/>
<path d="M7.65607 22.5095L10.7334 20.8395L8.08546 18.5194L7.65607 22.5095Z" fill="#E27625" stroke="#E27625" stroke-width="1.40927" stroke-linecap="round" stroke-linejoin="round"/>
<path d="M14.124 20.8395L17.2013 22.5095L16.7719 18.5194L14.124 20.8395Z" fill="#E27625" stroke="#E27625" stroke-width="1.40927" stroke-linecap="round" stroke-linejoin="round"/>
<path d="M17.2013 22.5102L14.124 20.8401L14.3656 23.0802L14.3387 24.0202L17.2013 22.5102Z" fill="#D5BFB2" stroke="#D5BFB2" stroke-width="1.40927" stroke-linecap="round" stroke-linejoin="round"/>
<path d="M7.65607 22.5102L10.5187 24.0202L10.5008 23.0802L10.7334 20.8401L7.65607 22.5102Z" fill="#D5BFB2" stroke="#D5BFB2" stroke-width="1.40927" stroke-linecap="round" stroke-linejoin="round"/>
<path d="M10.572 17.0395L8.01355 16.1995L9.82057 15.2695L10.572 17.0395Z" fill="#233447" stroke="#233447" stroke-width="1.40927" stroke-linecap="round" stroke-linejoin="round"/>
<path d="M14.2845 17.0395L15.036 15.2695L16.8609 16.1995L14.2845 17.0395Z" fill="#233447" stroke="#233447" stroke-width="1.40927" stroke-linecap="round" stroke-linejoin="round"/>
<path d="M7.65622 22.5105L8.10351 18.3904L5.25879 18.4804L7.65622 22.5105Z" fill="#CC6228" stroke="#CC6228" stroke-width="1.40927" stroke-linecap="round" stroke-linejoin="round"/>
<path d="M16.7538 18.3904L17.2011 22.5105L19.6074 18.4804L16.7538 18.3904Z" fill="#CC6228" stroke="#CC6228" stroke-width="1.40927" stroke-linecap="round" stroke-linejoin="round"/>
<path d="M18.9188 13.85L13.8108 14.11L14.2849 17.0401L15.0363 15.27L16.8613 16.2001L18.9188 13.85Z" fill="#CC6228" stroke="#CC6228" stroke-width="1.40927" stroke-linecap="round" stroke-linejoin="round"/>
<path d="M8.01381 16.2001L9.82083 15.27L10.5723 17.0401L11.0464 14.11L5.93842 13.85L8.01381 16.2001Z" fill="#CC6228" stroke="#CC6228" stroke-width="1.40927" stroke-linecap="round" stroke-linejoin="round"/>
<path d="M5.93842 13.85L8.08537 18.5201L8.0138 16.2001L5.93842 13.85Z" fill="#E27525" stroke="#E27525" stroke-width="1.40927" stroke-linecap="round" stroke-linejoin="round"/>
<path d="M16.861 16.2001L16.7715 18.5201L18.9185 13.85L16.861 16.2001Z" fill="#E27525" stroke="#E27525" stroke-width="1.40927" stroke-linecap="round" stroke-linejoin="round"/>
<path d="M11.0466 14.1096L10.5724 17.0397L11.1718 20.4998L11.297 15.9397L11.0466 14.1096Z" fill="#E27525" stroke="#E27525" stroke-width="1.40927" stroke-linecap="round" stroke-linejoin="round"/>
<path d="M13.8111 14.1096L13.5696 15.9297L13.6859 20.4998L14.2852 17.0397L13.8111 14.1096Z" fill="#E27525" stroke="#E27525" stroke-width="1.40927" stroke-linecap="round" stroke-linejoin="round"/>
<path d="M14.2851 17.0403L13.6857 20.5004L14.1241 20.8404L16.772 18.5203L16.8614 16.2003L14.2851 17.0403Z" fill="#F5841F" stroke="#F5841F" stroke-width="1.40927" stroke-linecap="round" stroke-linejoin="round"/>
<path d="M8.01355 16.2003L8.08512 18.5203L10.733 20.8404L11.1714 20.5004L10.572 17.0403L8.01355 16.2003Z" fill="#F5841F" stroke="#F5841F" stroke-width="1.40927" stroke-linecap="round" stroke-linejoin="round"/>
<path d="M14.3385 24.02L14.3653 23.0799L14.1417 22.8599H10.7155L10.5008 23.0799L10.5187 24.02L7.65607 22.5099L8.65798 23.43L10.6886 25H14.1685L16.1992 23.43L17.2011 22.5099L14.3385 24.02Z" fill="#C0AC9D" stroke="#C0AC9D" stroke-width="1.40927" stroke-linecap="round" stroke-linejoin="round"/>
<path d="M14.1236 20.8402L13.6853 20.5002H11.1715L10.7332 20.8402L10.5006 23.0802L10.7153 22.8602H14.1415L14.3651 23.0802L14.1236 20.8402Z" fill="#161616" stroke="#161616" stroke-width="1.40927" stroke-linecap="round" stroke-linejoin="round"/>
<path d="M23.2396 8.99019L24 4.85009L22.8639 1L14.124 8.25017L17.4876 11.4303L22.2288 12.9803L23.2754 11.6103L22.8192 11.2402L23.5527 10.5002L22.9981 10.0102L23.7227 9.4002L23.2396 8.99019Z" fill="#763E1A" stroke="#763E1A" stroke-width="1.40927" stroke-linecap="round" stroke-linejoin="round"/>
<path d="M0.857239 4.85009L1.62656 8.99019L1.13455 9.4002L1.85915 10.0102L1.30452 10.5002L2.03806 11.2402L1.58184 11.6103L2.62848 12.9803L7.37862 11.4303L10.7332 8.25017L2.00228 1L0.857239 4.85009Z" fill="#763E1A" stroke="#763E1A" stroke-width="1.40927" stroke-linecap="round" stroke-linejoin="round"/>
<path d="M22.2284 12.9798L17.4872 11.4298L18.9185 13.8498L16.7715 18.5199L19.6073 18.4799H23.8207L22.2284 12.9798Z" fill="#F5841F" stroke="#F5841F" stroke-width="1.40927" stroke-linecap="round" stroke-linejoin="round"/>
<path d="M7.37887 11.4298L2.62873 12.9798L1.04535 18.4799H5.25875L8.08557 18.5199L5.93862 13.8498L7.37887 11.4298Z" fill="#F5841F" stroke="#F5841F" stroke-width="1.40927" stroke-linecap="round" stroke-linejoin="round"/>
<path d="M13.811 14.1102L14.1241 8.25006L15.4928 4.07996H9.36499L10.7337 8.25006L11.0468 14.1102L11.1631 15.9502L11.172 20.5004H13.6857L13.6947 15.9502L13.811 14.1102Z" fill="#F5841F" stroke="#F5841F" stroke-width="1.40927" stroke-linecap="round" stroke-linejoin="round"/>
</svg>
